<svg xmlns="http://www.w3.org/2000/svg" width="320" height="320" viewBox="0 0 320 320">
  <defs>
    <linearGradient id="g" x1="0" y1="0" x2="1" y2="1">
      <stop offset="0" stop-color="#0b1020"/>
      <stop offset="1" stop-color="#070a12"/>
    </linearGradient>
    <pattern id="p" width="80" height="80" patternUnits="userSpaceOnUse">
      <rect width="80" height="80" fill="none"/>
      <path d="M40 12l10 18-10 18-10-18 10-18Z" fill="#d4af37" fill-opacity=".10"/>
      <path d="M12 40l18-10 18 10-18 10-18-10Z" fill="#d4af37" fill-opacity=".07"/>
      <path d="M40 68l10-18-10-18-10 18 10 18Z" fill="#d4af37" fill-opacity=".10"/>
      <path d="M68 40l-18-10-18 10 18 10 18-10Z" fill="#d4af37" fill-opacity=".07"/>
      <circle cx="40" cy="40" r="1.5" fill="#d4af37" fill-opacity=".20"/>
    </pattern>
    <radialGradient id="v" cx=".5" cy=".25" r=".9">
      <stop offset="0" stop-color="#ffffff" stop-opacity=".06"/>
      <stop offset=".6" stop-color="#ffffff" stop-opacity=".02"/>
      <stop offset="1" stop-color="#000000" stop-opacity="0"/>
    </radialGradient>
  </defs>

  <rect width="320" height="320" fill="url(#g)"/>
  <rect width="320" height="320" fill="url(#p)"/>
  <rect width="320" height="320" fill="url(#v)"/>
</svg>
